<?xml version="1.0" encoding="UTF-8"?>
<svg id="Calque_1" data-name="Calque 1" xmlns="http://www.w3.org/2000/svg" viewBox="0 0 1173.78 1757.81">
  <defs>
    <style>
      .cls-1 {
        font-family: MinionPro-Regular, 'Minion Pro';
        font-size: 452px;
      }

      .cls-1, .cls-2 {
        isolation: isolate;
      }

      .cls-1, .cls-3 {
        fill: none;
        stroke: #000;
      }
    </style>
  </defs>
  <g>
    <path class="cls-3" d="M153.84,50.9h-13.61l-49.93,130.01,40.2,4.13,14.36-38.36c7.5-20.45,13.31-41.05,17.44-61.8,5,17.51,12.65,39.88,22.95,67.09l11.93,32.89,40.92-3.69-51.75-130.27h-32.51"/>
    <polygon class="cls-3" points="242.21 189.74 201.21 194.37 219.01 241.59 168.8 241.59 168.8 276.46 232.25 276.46 269.99 374.46 318.77 374.46 242.21 189.74"/>
    <polygon class="cls-3" points="127.02 194.33 86.81 189.97 15.96 374.46 61.43 374.46 96.96 276.46 155.86 276.46 155.86 241.59 109.32 241.59 127.02 194.33"/>
  </g>
  <path class="cls-3" d="M485.78,279.6,528.59,279.6v-3.24s0-52.37,0-52.37h74.82c20.6,0,36.38,1.8,47.34,5.41,10.96,3.61,19.53,9.86,25.71,18.76,6.18,8.9,9.27,19.39,9.27,31.45h44.36c0-18.83-5.26-35.16-15.78-49-10.52-13.83-25.57-23.62-45.13-29.35,15.15-7.5,26.48-17.36,33.99-29.57,5.56-9.04,9.05-22.64,10.49-32.57l-41.61-.04c-.75,8.97-3.44,20.6-8.06,26.88-5.52,7.5-13.72,12.88-24.61,16.11-8.24,2.5-21.85,3.75-40.83,3.75h-69.96v-46.73l-42.82-.02v140.54h39.53s3.29,0,3.29,0ZM485.78,127.04,486.32,127.04h42.28v-39.01h64.67c23.25,0,39.65,1.51,49.22,4.52,9.56,3.02,16.92,8.61,22.07,16.77,3.86,6.12,6.23,10.16,7.19,17.73h42.49c-.93-12.86-5.09-25.25-12.49-37.15-8.46-13.61-20.16-23.69-35.09-30.24-14.94-6.55-34.76-9.82-59.48-9.82h-121.39v77.19h.54ZM528.59,291.85l-42.82.08v81.47h123.37c20.6,0,38-1.8,52.2-5.41,14.2-3.6,26-8.94,35.42-16,9.41-7.06,17.33-17.1,23.73-30.13,4.64-9.45,7.6-19.45,9.42-30.01h-44.55s-4.19,11.84-6.04,15c-4.51,7.74-9.71,13.87-16.33,17.99-6.62,4.12-14.86,7.06-24.72,8.83-5.59,1.03-15.3,1.54-29.13,1.54h-80.56v-43.36Z"/>
  <g id="text3" class="cls-2">
    <text class="cls-1" transform="translate(872.7 373.4)"><tspan x="0" y="0">C</tspan></text>
  </g>
  <path class="cls-3" d="M274.47,829.09c-1.33,13.56-4.98,22.15-8.52,32.86-5.67,17.14-13.57,30.79-23.73,40.94-7.21,7.21-16.88,12.8-29.02,16.77s-28.88,5.96-50.21,5.96h-69.08v-96.53l-42.82.23v134.49h116.75c19.57,0,36.89-1.84,51.98-5.52,15.08-3.68,27.95-9.08,38.62-16.22,10.67-7.13,20.49-16.92,29.46-29.35,8.97-12.43,16.33-28.14,22.07-47.12,3.38-11.19,5.77-23.36,7.16-36.5h-42.67ZM93.43,799.58h.48v-121.14h67.98c25.45,0,43.92,2.21,55.4,6.62,15.89,6.18,29.39,18.36,40.5,36.53,11.11,18.17,16.66,44.18,16.66,78.02l44.14.14c0-28.84-4.23-53.95-12.69-76.39-8.46-22.44-21.23-40.86-38.29-55.29-13.1-11.18-28.91-18.9-47.45-23.17-13.24-3.09-32.44-4.63-57.6-4.63H51.09v159.35l42.82-.04"/>
  <g id="text5" class="cls-2">
    <text class="cls-1" transform="translate(452.67 977.18)"><tspan x="0" y="0">E</tspan></text>
  </g>
  <g id="text6" class="cls-2">
    <text class="cls-1" transform="translate(920.07 977.18)"><tspan x="0" y="0">F</tspan></text>
  </g>
  <g id="text7" class="cls-2">
    <text class="cls-1" transform="translate(.5 1593.94)"><tspan x="0" y="0">G</tspan></text>
  </g>
  <g id="text8" class="cls-2">
    <text class="cls-1" transform="translate(411.74 1594.59)"><tspan x="0" y="0">H</tspan></text>
  </g>
</svg>