<?xml version="1.0" encoding="UTF-8"?>
<svg version="1.1" xmlns="http://www.w3.org/2000/svg" width="223" height="172">
<path d="M0 0 C73.59 0 147.18 0 223 0 C223 56.76 223 113.52 223 172 C149.41 172 75.82 172 0 172 C0 115.24 0 58.48 0 0 Z " fill="#FAFAFB" transform="translate(0,0)"/>
<path d="M0 0 C6.6 0 13.2 0 20 0 C20 26.73 20 53.46 20 81 C13.4 81 6.8 81 0 81 C0 54.27 0 27.54 0 0 Z " fill="#EE5C27" transform="translate(160,29)"/>
<path d="M0 0 C6.93 0 13.86 0 21 0 C21 22.77 21 45.54 21 69 C14.07 69 7.14 69 0 69 C0 46.23 0 23.46 0 0 Z " fill="#C0D220" transform="translate(134,41)"/>
<path d="M0 0 C6.6 0 13.2 0 20 0 C20 18.48 20 36.96 20 56 C13.4 56 6.8 56 0 56 C0 37.52 0 19.04 0 0 Z " fill="#02885E" transform="translate(109,54)"/>
<path d="M0 0 C6.6 0 13.2 0 20 0 C20 14.19 20 28.38 20 43 C13.4 43 6.8 43 0 43 C0 28.81 0 14.62 0 0 Z " fill="#2A7DD8" transform="translate(84,67)"/>
<path d="M0 0 C6.6 0 13.2 0 20 0 C20 19.97041819 14.09758673 39.35361991 3 56 C2.34 56 1.68 56 1 56 C0.09383235 43.46382951 -0.12461938 31.00319642 -0.0625 18.4375 C-0.05746671 16.63606898 -0.05290709 14.83463656 -0.04882812 13.03320312 C-0.03885002 8.68873802 -0.01925173 4.34447264 0 0 Z " fill="#F99F25" transform="translate(160,29)"/>
<path d="M0 0 C0.33 0 0.66 0 1 0 C1 18.48 1 36.96 1 56 C-5.27 56 -11.54 56 -18 56 C-18.9375 38.99107143 -18.9375 38.99107143 -14.8125 33.9375 C-13.56156475 32.60602164 -12.29183467 31.29183467 -11 30 C-4.31593567 21.82645058 -1.85325744 10.21306 0 0 Z " fill="#5FA30A" transform="translate(153,53)"/>
<path d="M0 0 C6.27 0 12.54 0 19 0 C19 10.23 19 20.46 19 31 C12.73 31 6.46 31 0 31 C0 20.77 0 10.54 0 0 Z " fill="#4262B6" transform="translate(60,79)"/>
<path d="M0 0 C6.6 0 13.2 0 20 0 C20 10.29230769 20 10.29230769 18.25 16 C17.92515625 17.11375 17.6003125 18.2275 17.265625 19.375 C16 22 16 22 13.859375 22.875 C13.24578125 22.91625 12.6321875 22.9575 12 23 C12.33 23.99 12.66 24.98 13 26 C9.17324037 24.49663014 7.51559112 22.16477592 5 19 C4.01 18.67 3.02 18.34 2 18 C1.34 18.99 0.68 19.98 0 21 C0 14.07 0 7.14 0 0 Z " fill="#6FBC55" transform="translate(109,54)"/>
<path d="M0 0 C5.61 0 11.22 0 17 0 C17 6.6 17 13.2 17 20 C11.39 20 5.78 20 0 20 C0 13.4 0 6.8 0 0 Z " fill="#715097" transform="translate(38,90)"/>
<path d="M0 0 C0.33 0 0.66 0 1 0 C1 9.9 1 19.8 1 30 C-4.94 30 -10.88 30 -17 30 C-17 26.37 -17 22.74 -17 19 C-15.35 18.67 -13.7 18.34 -12 18 C-5.31183825 13.3592347 -2.29554007 7.84309523 0 0 Z " fill="#0145C3" transform="translate(102,79)"/>
<path d="M0 0 C0.33 1.32 0.66 2.64 1 4 C1.556875 4.04125 2.11375 4.0825 2.6875 4.125 C6.24030274 5.46930374 7.70958953 8.00974189 10 11 C9.67 9.68 9.34 8.36 9 7 C10.32 7.66 11.64 8.32 13 9 C13.33 8.34 13.66 7.68 14 7 C15.31518695 10.94556086 14.36164115 12.06760201 12.5625 15.75 C10.40205651 19.98974356 8.52501698 22.70152191 4.6875 25.5 C1.86730189 27.65409418 1.1009248 28.5730935 0.26953125 32.08984375 C0.03106449 35.05167002 0 38.02858935 0 41 C6.27 41 12.54 41 19 41 C19 41.33 19 41.66 19 42 C12.4 42 5.8 42 -1 42 C-1.02304049 37.14357577 -1.04292859 32.28734367 -1.05493164 27.4309082 C-1.05993919 25.78116206 -1.06674716 24.1314203 -1.07543945 22.48168945 C-1.08766254 20.10106315 -1.09326422 17.72049587 -1.09765625 15.33984375 C-1.10281754 14.61039047 -1.10797882 13.88093719 -1.11329651 13.12937927 C-1.11377964 8.65058638 -0.73285068 4.41992641 0 0 Z " fill="#30AA75" transform="translate(110,68)"/>
<path d="M0 0 C10.22459016 -0.48688525 10.22459016 -0.48688525 13.6875 1.6875 C15.29181863 4.51415664 15.71750953 5.81106874 15 9 C12.08772497 12.26527806 10.58864097 12.96140059 6.1875 13.25 C5.135625 13.1675 4.08375 13.085 3 13 C3 14.98 3 16.96 3 19 C2.01 19 1.02 19 0 19 C0 12.73 0 6.46 0 0 Z " fill="#4F5460" transform="translate(58,130)"/>
<path d="M0 0 C4.95 0 9.9 0 15 0 C15 0.99 15 1.98 15 3 C11.37 3 7.74 3 4 3 C4 4.65 4 6.3 4 8 C6.97 8 9.94 8 13 8 C13 8.99 13 9.98 13 11 C10.03 11 7.06 11 4 11 C4 12.65 4 14.3 4 16 C7.63 16 11.26 16 15 16 C15 17.32 15 18.64 15 20 C10.05 20 5.1 20 0 20 C0 13.4 0 6.8 0 0 Z " fill="#606570" transform="translate(79,130)"/>
<path d="M0 0 C1.87988281 0.29541016 1.87988281 0.29541016 4 1 C5.4500783 3.46984881 6.62021639 5.76631509 7.75 8.375 C8.06582031 9.06078125 8.38164062 9.7465625 8.70703125 10.453125 C10.05486384 13.45219839 11 15.67828502 11 19 C9.0625 18.625 9.0625 18.625 7 18 C6.67 17.34 6.34 16.68 6 16 C3.03 16 0.06 16 -3 16 C-3.66 17.32 -4.32 18.64 -5 20 C-5.99 20 -6.98 20 -8 20 C-7.35014905 15.28629244 -5.48438608 11.42313556 -3.4375 7.1875 C-2.9434668 6.14819336 -2.9434668 6.14819336 -2.43945312 5.08789062 C-1.63127749 3.38955052 -0.81631623 1.69444231 0 0 Z " fill="#4F545F" transform="translate(173,130)"/>
<path d="M0 0 C0.33 0 0.66 0 1 0 C1 6.27 1 12.54 1 19 C-4.94 19 -10.88 19 -17 19 C-17 17.02 -17 15.04 -17 13 C-15.98679688 12.74476562 -15.98679688 12.74476562 -14.953125 12.484375 C-8.06154894 10.73294798 -8.06154894 10.73294798 -3 6 C-1.93988057 4.03120677 -0.92529151 2.03564133 0 0 Z " fill="#1B3B9C" transform="translate(77,90)"/>
<path d="M0 0 C10.33846154 -0.49230769 10.33846154 -0.49230769 13.6875 2 C14.120625 2.66 14.55375 3.32 15 4 C10.8725485 4 7.084979 3.54466387 3 3 C3 5.31 3 7.62 3 10 C6.3 10 9.6 10 13 10 C12.67 10.99 12.34 11.98 12 13 C13.87197454 15.69433317 13.87197454 15.69433317 16 18 C14.68 18.33 13.36 18.66 12 19 C11.4225 18.195625 10.845 17.39125 10.25 16.5625 C8.01873107 14.02133261 7.25543229 13.34879632 4 13 C4 15.31 4 17.62 4 20 C2.68 20 1.36 20 0 20 C0 13.4 0 6.8 0 0 Z " fill="#595F6A" transform="translate(144,130)"/>
<path d="M0 0 C0.99 0.33 1.98 0.66 3 1 C2.67 1.99 2.34 2.98 2 4 C-0.97 4 -3.94 4 -7 4 C-7 4.99 -7 5.98 -7 7 C-6.37351562 7.19335938 -5.74703125 7.38671875 -5.1015625 7.5859375 C-3.87566406 7.97652344 -3.87566406 7.97652344 -2.625 8.375 C-1.81289063 8.63023437 -1.00078125 8.88546875 -0.1640625 9.1484375 C2 10 2 10 4 12 C3.67028521 15.29714793 3.3773161 16.6226839 1 19 C-1.6015625 19.1953125 -1.6015625 19.1953125 -4.625 19.125 C-6.12933594 19.09792969 -6.12933594 19.09792969 -7.6640625 19.0703125 C-8.43492188 19.04710937 -9.20578125 19.02390625 -10 19 C-10.33 18.01 -10.66 17.02 -11 16 C-7.7 16 -4.4 16 -1 16 C-1.33 14.68 -1.66 13.36 -2 12 C-3.11375 11.71125 -4.2275 11.4225 -5.375 11.125 C-9 10 -9 10 -11 8 C-11.35131571 5.25973747 -11.34419875 3.62386024 -10 1.1875 C-6.84434523 -0.68617002 -3.58272887 -0.37560867 0 0 Z " fill="#484E59" transform="translate(47,130)"/>
<path d="M0 0 C2.4375 1 2.4375 1 4 2 C3.67 2.66 3.34 3.32 3 4 C2.07767578 3.96519531 2.07767578 3.96519531 1.13671875 3.9296875 C0.32847656 3.91164062 -0.47976562 3.89359375 -1.3125 3.875 C-2.51326172 3.84019531 -2.51326172 3.84019531 -3.73828125 3.8046875 C-6.28388576 3.84182678 -6.28388576 3.84182678 -9 6 C-9.57819632 10.62715026 -9.57819632 10.62715026 -7.76953125 14.7421875 C-5.39121283 16.43273613 -4.15232062 16.14022503 -1.3125 15.6875 C-0.10013672 15.50767578 -0.10013672 15.50767578 1.13671875 15.32421875 C1.75160156 15.21722656 2.36648437 15.11023438 3 15 C3.33 15.99 3.66 16.98 4 18 C0.28037496 20.47975003 -2.69180125 20.75454328 -7 20 C-11.36879433 17.65957447 -11.36879433 17.65957447 -13 15 C-13.85383549 11.4808132 -13.85942202 8.51843913 -13 5 C-9.89503703 0.09742689 -5.51107245 -0.71439828 0 0 Z " fill="#454C58" transform="translate(113,130)"/>
<path d="M0 0 C4 2 4 2 6 5 C8.55183404 6.20450304 8.55183404 6.20450304 11 7 C9.77481548 13.27907064 5.92804292 16.33916812 1 20 C0.67 20 0.34 20 0 20 C0 13.4 0 6.8 0 0 Z " fill="#01A771" transform="translate(110,77)"/>
<path d="M0 0 C5.94 0 11.88 0 18 0 C18 0.99 18 1.98 18 3 C15.69 3 13.38 3 11 3 C11 8.61 11 14.22 11 20 C9.68 20 8.36 20 7 20 C7 14.39 7 8.78 7 3 C4.69 3 2.38 3 0 3 C0 2.01 0 1.02 0 0 Z " fill="#5F6470" transform="translate(121,130)"/>
<path d="M0 0 C0.33 0 0.66 0 1 0 C1 4.29 1 8.58 1 13 C-4.28 13 -9.56 13 -15 13 C-15 9.04 -15 5.08 -15 1 C-14.67 1 -14.34 1 -14 1 C-14 3.31 -14 5.62 -14 8 C-12.3934324 7.74379316 -10.7897517 7.46944129 -9.1875 7.1875 C-7.84751953 6.96126953 -7.84751953 6.96126953 -6.48046875 6.73046875 C-3.76353184 5.93036292 -2.70779042 5.22497616 -1 3 C-0.67 2.01 -0.34 1.02 0 0 Z " fill="#452478" transform="translate(53,96)"/>
<path d="M0 0 C4.51617599 -0.07654536 8.59085217 -0.10228696 13 1 C12.625 3.9375 12.625 3.9375 12 7 C9.37684968 8.31157516 7.76966564 7.89649988 4.875 7.5625 C3.96492187 7.46066406 3.05484375 7.35882813 2.1171875 7.25390625 C1.41851562 7.17011719 0.71984375 7.08632812 0 7 C0 4.69 0 2.38 0 0 Z " fill="#7E828B" transform="translate(147,133)"/>
<path d="M0 0 C1.32 0.33 2.64 0.66 4 1 C3.67 3.31 3.34 5.62 3 8 C5.31 8 7.62 8 10 8 C10 8.99 10 9.98 10 11 C7.69 11 5.38 11 3 11 C3 12.98 3 14.96 3 17 C2.01 17 1.02 17 0 17 C0 11.39 0 5.78 0 0 Z " fill="#4B515E" transform="translate(58,132)"/>
<path d="M0 0 C1.5 1.375 1.5 1.375 3 3 C3 3.66 3 4.32 3 5 C3.99 4.67 4.98 4.34 6 4 C10 10.625 10 10.625 10 14 C8.0625 13.625 8.0625 13.625 6 13 C5.67 12.34 5.34 11.68 5 11 C2.87423218 10.53348793 2.87423218 10.53348793 0.4375 10.375 C-0.38878906 10.30023438 -1.21507812 10.22546875 -2.06640625 10.1484375 C-2.70449219 10.09945312 -3.34257812 10.05046875 -4 10 C-4 9.67 -4 9.34 -4 9 C-0.535 8.505 -0.535 8.505 3 8 C1.35 7.67 -0.3 7.34 -2 7 C-1.125 2.25 -1.125 2.25 0 0 Z " fill="#60646F" transform="translate(174,135)"/>
<path d="M0 0 C0.33 0 0.66 0 1 0 C1.10709533 11.72098848 0.99140649 23.31556633 0 35 C-0.33 35 -0.66 35 -1 35 C-1.33 28.73 -1.66 22.46 -2 16 C-2.66 16.33 -3.32 16.66 -4 17 C-2.68 11.39 -1.36 5.78 0 0 Z " fill="#0F964A" transform="translate(128,63)"/>
<path d="M0 0 C6.6 0 13.2 0 20 0 C19.67 1.32 19.34 2.64 19 4 C19 3.34 19 2.68 19 2 C18.01 2.165 17.02 2.33 16 2.5 C5.88431062 3.94215531 5.88431062 3.94215531 2 2 C1.67 5.3 1.34 8.6 1 12 C0.67 12 0.34 12 0 12 C0 8.04 0 4.08 0 0 Z " fill="#98CA68" transform="translate(109,54)"/>
<path d="M0 0 C3.375 -0.125 3.375 -0.125 7 0 C7.66 0.66 8.32 1.32 9 2 C8.46428571 5.53571429 8.46428571 5.53571429 7 7 C4.66702567 7.04092937 2.33294775 7.04241723 0 7 C0 4.69 0 2.38 0 0 Z " fill="#EBEBED" transform="translate(61,133)"/>
<path d="M0 0 C0.33 0 0.66 0 1 0 C1 11.88 1 23.76 1 36 C0.67 36 0.34 36 0 36 C-0.33 28.74 -0.66 21.48 -1 14 C-1.99 14.495 -1.99 14.495 -3 15 C-2.01 10.05 -1.02 5.1 0 0 Z " fill="#69AA01" transform="translate(153,53)"/>
<path d="M0 0 C0.474375 0.515625 0.94875 1.03125 1.4375 1.5625 C5.30997616 3.73486467 8.75229924 2.75333154 13 2 C13.33 2.99 13.66 3.98 14 5 C9.93150591 7.71232939 7.83523216 7.30699887 3 7 C0.64046906 4.64046906 0.50858587 3.22104383 0 0 Z " fill="#606470" transform="translate(103,143)"/>
<path d="M0 0 C0.33 0 0.66 0 1 0 C1 1.65 1 3.3 1 5 C3.97 5 6.94 5 10 5 C10 5.99 10 6.98 10 8 C7.03 8 4.06 8 1 8 C1 9.65 1 11.3 1 13 C0.67 13 0.34 13 0 13 C-1.28571429 4.57142857 -1.28571429 4.57142857 0 0 Z " fill="#656A75" transform="translate(82,133)"/>
<path d="M0 0 C2.64 0 5.28 0 8 0 C7.67 1.65 7.34 3.3 7 5 C4.69 5 2.38 5 0 5 C0 3.35 0 1.7 0 0 Z " fill="#F9F8F9" transform="translate(148,134)"/>
<path d="M0 0 C1.8125 0.125 1.8125 0.125 4 1 C5.8125 3.875 5.8125 3.875 7 7 C6.67 7.99 6.34 8.98 6 10 C5.34 10 4.68 10 4 10 C2.98133771 8.34467377 1.98189187 6.67739862 1 5 C0.34 4.67 -0.32 4.34 -1 4 C-0.67 2.68 -0.34 1.36 0 0 Z " fill="#565A65" transform="translate(173,130)"/>
<path d="M0 0 C0.99 0.33 1.98 0.66 3 1 C2.01 2.485 2.01 2.485 1 4 C-1.6015625 4.29296875 -1.6015625 4.29296875 -4.625 4.1875 C-6.12933594 4.14689453 -6.12933594 4.14689453 -7.6640625 4.10546875 C-8.82035156 4.05326172 -8.82035156 4.05326172 -10 4 C-10.33 3.01 -10.66 2.02 -11 1 C-10.28972656 1.01160156 -9.57945313 1.02320313 -8.84765625 1.03515625 C-7.92855469 1.04417969 -7.00945313 1.05320313 -6.0625 1.0625 C-4.68771484 1.07990234 -4.68771484 1.07990234 -3.28515625 1.09765625 C-1.03406673 1.25949049 -1.03406673 1.25949049 0 0 Z " fill="#444955" transform="translate(47,145)"/>
<path d="M0 0 C1.75 0.0625 1.75 0.0625 4 1 C5.59501537 3.24164322 6.74543018 5.53566643 8 8 C4.89347355 7.6641593 3.39585697 7.40950721 1.1875 5.125 C0 3 0 3 0 0 Z " fill="#4B4F5A" transform="translate(152,141)"/>
<path d="M0 0 C1.31602523 0.61754259 2.62773556 1.24428742 3.9375 1.875 C4.66839844 2.22304687 5.39929688 2.57109375 6.15234375 2.9296875 C8 4 8 4 9 6 C11.01669827 7.13350534 11.01669827 7.13350534 13 8 C12.34 8.66 11.68 9.32 11 10 C6.43859132 7.98449384 3.28563839 5.76882051 0 2 C0 1.34 0 0.68 0 0 Z " fill="#1BB167" transform="translate(110,75)"/>
<path d="M0 0 C3.63 0 7.26 0 11 0 C11 0.99 11 1.98 11 3 C3.57142857 3.14285714 3.57142857 3.14285714 0 2 C0 1.34 0 0.68 0 0 Z " fill="#555A65" transform="translate(58,130)"/>
<path d="M0 0 C2.50037734 2.17424117 3.43628586 3.73045798 4 7 C2.02 7 0.04 7 -2 7 C-1.125 2.25 -1.125 2.25 0 0 Z " fill="#DFE0E3" transform="translate(174,135)"/>
<path d="M0 0 C6.27 0 12.54 0 19 0 C19 1.65 19 3.3 19 5 C18.67 3.68 18.34 2.36 18 1 C16.95199219 1.0721875 15.90398437 1.144375 14.82421875 1.21875 C13.4453161 1.3125529 12.06640965 1.40629999 10.6875 1.5 C9.99720703 1.54769531 9.30691406 1.59539063 8.59570312 1.64453125 C5.72337641 1.83879489 2.87986212 2 0 2 C0 1.34 0 0.68 0 0 Z " fill="#E4D902" transform="translate(135,42)"/>
<path d="M0 0 C1.258125 -0.020625 2.51625 -0.04125 3.8125 -0.0625 C4.52019531 -0.07410156 5.22789063 -0.08570313 5.95703125 -0.09765625 C8 0 8 0 11 1 C10.67 1.99 10.34 2.98 10 4 C8.72125 3.896875 7.4425 3.79375 6.125 3.6875 C5.04605469 3.60048828 5.04605469 3.60048828 3.9453125 3.51171875 C2 3 2 3 0 0 Z " fill="#646873" transform="translate(39,130)"/>
<path d="M0 0 C2.96052484 3.36423277 3.92289822 6.69159287 5 11 C1.125 9.125 1.125 9.125 0 8 C-0.14115161 5.32941149 -0.04247107 2.67567762 0 0 Z " fill="#424854" transform="translate(100,137)"/>
<path d="M0 0 C7.42857143 -0.28571429 7.42857143 -0.28571429 11 2 C10.67 2.66 10.34 3.32 10 4 C3.47692308 3.38461538 3.47692308 3.38461538 1.0625 1.4375 C0.711875 0.963125 0.36125 0.48875 0 0 Z " fill="#595E6A" transform="translate(106,130)"/>
<path d="M0 0 C1.65 0.33 3.3 0.66 5 1 C5.33 2.32 5.66 3.64 6 5 C3.36 4.34 0.72 3.68 -2 3 C-1.34 2.67 -0.68 2.34 0 2 C0 1.34 0 0.68 0 0 Z " fill="#5A5F6A" transform="translate(41,138)"/>
<path d="M0 0 C0.33 1.32 0.66 2.64 1 4 C1.61875 4.0825 2.2375 4.165 2.875 4.25 C5 5 5 5 6.25 7.0625 C6.4975 7.701875 6.745 8.34125 7 9 C4.50638429 7.79618552 2.31856917 6.54571278 0 5 C-0.1875 2.375 -0.1875 2.375 0 0 Z " fill="#47B45E" transform="translate(110,68)"/>
</svg>
